# xmcd
#
# Track frame offsets: 
#        150
#        23304
#        44243
#        65879
#        91980
#        112801
#        132981
#        154930
#        182327
#        207244
#        233582
#        255817
#        274402
#        299765
#
# Disc length: 4316 seconds
#
# Revision: 0
# Processed by: cddbd v1.5.2PL0 Copyright (c) Steve Scherf et al.
# Submitted via: ExactAudioCopy v0.99pb5
#
DISCID=c510da0e
DTITLE=Rush  - Retrospective III 1989-2008   
DYEAR=1900
DGENRE=
TTITLE0=One Little Victory (Remix)
TTITLE1=Dreamline
TTITLE2=Workin' Them Angels
TTITLE3=Presto
TTITLE4=Bravado
TTITLE5=Driven
TTITLE6=The Pass
TTITLE7=Animate
TTITLE8=Roll The Bones
TTITLE9=Ghost Of A Chance (Live)
TTITLE10=Nobody's Hero
TTITLE11=Leave That Thing Alone
TTITLE12=Earthshine (Remix)
TTITLE13=Far Cry
EXTD=
EXTT0=
EXTT1=
EXTT2=
EXTT3=
EXTT4=
EXTT5=
EXTT6=
EXTT7=
EXTT8=
EXTT9=
EXTT10=
EXTT11=
EXTT12=
EXTT13=
PLAYORDER=
